<?xml version="1.0" standalone="no"?>
<!DOCTYPE svg PUBLIC "-//W3C//DTD SVG 20010904//EN"
 "http://www.w3.org/TR/2001/REC-SVG-20010904/DTD/svg10.dtd">
<svg version="1.0" xmlns="http://www.w3.org/2000/svg"
 width="512.000000pt" height="512.000000pt" viewBox="0 0 512.000000 512.000000"
 preserveAspectRatio="xMidYMid meet">
<metadata>
Created by potrace 1.14, written by Peter Selinger 2001-2017
</metadata>
<g transform="translate(0.000000,512.000000) scale(0.100000,-0.100000)"
fill="#000000" stroke="none">
<path d="M805 5103 c-265 -56 -485 -270 -554 -539 -21 -78 -21 -93 -18 -2014
1 -1064 6 -1951 11 -1970 53 -230 222 -432 439 -523 139 -58 38 -55 2019 -56
l1826 -1 1 557 c1 307 1 595 1 641 l0 82 180 0 180 0 1 30 c0 17 0 109 0 205
0 96 0 206 0 245 l-1 70 -181 2 -181 3 0 216 c0 119 2 221 5 227 4 5 75 9 172
8 91 -1 171 1 177 5 7 4 11 97 12 272 1 229 -1 266 -14 269 -8 2 -90 3 -182 3
-108 0 -168 3 -169 10 0 11 0 413 1 433 0 9 43 12 183 12 l182 0 -2 248 c-1
136 -2 259 -2 275 l-1 27 -180 0 -180 0 -1 28 c-3 143 0 412 5 420 3 5 79 9
176 9 93 0 172 2 176 5 4 5 7 288 5 494 l-1 50 -180 0 -180 -1 -1 35 c0 19 0
81 0 138 l0 102 -1827 -1 c-1579 -1 -1836 -3 -1897 -16z"/>
</g>
</svg>
